<?xml version="1.0" encoding="UTF-8"?>
<!DOCTYPE svg PUBLIC "-//W3C//DTD SVG 1.1//EN" "http://www.w3.org/Graphics/SVG/1.1/DTD/svg11.dtd">
<!-- Creator: CorelDRAW 2020 (64-Bit) -->
<svg xmlns="http://www.w3.org/2000/svg" xml:space="preserve" width="210mm" height="297mm" version="1.1" style="shape-rendering:geometricPrecision; text-rendering:geometricPrecision; image-rendering:optimizeQuality; fill-rule:evenodd; clip-rule:evenodd"
viewBox="0 0 21000 29700"
 xmlns:xlink="http://www.w3.org/1999/xlink"
 xmlns:xodm="http://www.corel.com/coreldraw/odm/2003">
 <defs>
  <style type="text/css">
   <![CDATA[
    .fil0 {fill:#FEFEFE}
   ]]>
  </style>
 </defs>
 <g id="Capa_x0020_1">
  <metadata id="CorelCorpID_0Corel-Layer"/>
  <path class="fil0" d="M3297.83 16497.54l9191.46 0 0 9.6 126.35 0c258.3,0 431.91,33.43 520.83,100.36 88.74,65.67 141.54,184.21 161.03,351.57 5.48,95.35 8.34,388.99 8.34,878.35 0,540.85 63.89,924.54 192.92,1152.62 129.15,226.59 351.45,409.43 666.72,547.17 -240.3,94.1 -424.93,222.95 -556.88,390.3 -130.58,167.41 -218.07,390.25 -261.1,668.39 -22.23,168.66 -33.31,565.34 -33.31,1193.86 0,328.27 -45.78,539.42 -137.5,633.47 -93.03,94.04 -279.09,141.72 -561.05,141.72l-126.35 0 0 9.42 -9191.46 0 0 -9.42 -126.35 0c-256.99,0 -429.16,-33.49 -518.08,-101.73 -87.43,-68.24 -141.61,-186.72 -163.78,-358.01 -5.54,-92.67 -8.4,-383.81 -8.4,-873.1 0,-539.66 -68,-928.48 -202.69,-1165.56 -136.12,-236.9 -354.13,-413.31 -655.4,-529.34 255.44,-111.93 441.56,-242.03 560.99,-387.51 118.01,-145.6 202.76,-352.94 251.33,-622.08 30.51,-173.79 45.77,-589.78 45.77,-1247.86 0,-327.13 45.83,-537.03 136.12,-630.96 91.66,-94.05 276.3,-141.66 555.51,-141.66l124.98 0 0 -9.6zm474.93 3038.53c0,-740.44 222.18,-1289.04 667.91,-1645.79 370.82,-296.26 824.84,-444.36 1359.43,-444.36 593,0 1079.08,180.34 1456.75,540.91 376.3,359.31 565.16,857.61 565.16,1492.57 0,515.1 -83.25,919.53 -250.01,1214.48 -166.58,294.83 -409.67,524.04 -729,687.64 -318.01,163.53 -666.6,244.65 -1042.9,244.65 -605.39,0 -1094.16,-178.98 -1467.72,-538.23 -373.55,-359.38 -559.62,-877.04 -559.62,-1551.87zm4911.57 2766.17l0 -5532.4 733.23 0 0 3151.17 1733.11 -1628.98 946.95 0 -1649.73 1489.88 1816.48 2520.33 -902.61 0 -1435.89 -2048.97 -508.31 458.55 0 1590.42 -733.23 0z"/>
 </g>
</svg>
