<?xml version="1.0" encoding="UTF-8"?>
<!DOCTYPE svg PUBLIC "-//W3C//DTD SVG 1.1//EN" "http://www.w3.org/Graphics/SVG/1.1/DTD/svg11.dtd">
<!-- Creator: CorelDRAW 2020 (64-Bit) -->
<svg xmlns="http://www.w3.org/2000/svg" xml:space="preserve" width="210mm" height="297mm" version="1.1" style="shape-rendering:geometricPrecision; text-rendering:geometricPrecision; image-rendering:optimizeQuality; fill-rule:evenodd; clip-rule:evenodd"
viewBox="0 0 21000 29700"
 xmlns:xlink="http://www.w3.org/1999/xlink"
 xmlns:xodm="http://www.corel.com/coreldraw/odm/2003">
 <defs>
  <style type="text/css">
   <![CDATA[
    .fil2 {fill:none}
    .fil0 {fill:#EA5563}
    .fil1 {fill:#2B2A29;fill-rule:nonzero}
   ]]>
  </style>
 </defs>
 <g id="Capa_x0020_1">
  <metadata id="CorelCorpID_0Corel-Layer"/>
  <g id="_849257008">
   <g>
    <path class="fil0" d="M-7189.67 3320.86c0,-325.24 97.6,-566.23 293.38,-722.92 162.88,-130.14 362.32,-195.19 597.13,-195.19 260.49,0 473.99,79.22 639.9,237.59 165.26,157.84 248.23,376.72 248.23,655.61 0,226.26 -36.58,403.9 -109.82,533.45 -73.17,129.52 -179.94,230.21 -320.2,302.05 -139.69,71.84 -292.81,107.48 -458.11,107.48 -265.93,0 -480.6,-78.62 -644.69,-236.44 -164.1,-157.84 -245.82,-385.22 -245.82,-681.63zm2157.41 1215.02l0 -2430.11 322.08 0 0 1384.16 761.26 -715.53 415.95 0 -724.64 654.43 797.88 1107.05 -396.45 0 -630.74 -900 -223.26 201.43 0 698.57 -322.08 0zm-2366.01 -2549.71l4037.35 0 0 4.21 55.48 0c113.48,0 189.74,14.69 228.78,44.08 38.99,28.85 62.19,80.93 70.75,154.45 2.41,41.86 3.66,170.85 3.66,385.81 0,237.56 28.06,406.11 84.74,506.27 56.72,99.55 154.36,179.85 292.85,240.36 -105.56,41.34 -186.65,97.93 -244.61,171.45 -57.37,73.52 -95.8,171.41 -114.69,293.58 -9.77,74.08 -14.64,248.33 -14.64,524.39 0,144.21 -20.1,236.96 -60.38,278.27 -40.88,41.3 -122.61,62.25 -246.46,62.25l-55.48 0 0 4.12 -4037.35 0 0 -4.12 -55.52 0c-112.87,0 -188.49,-14.72 -227.56,-44.69 -38.4,-29.98 -62.19,-82.02 -71.93,-157.26 -2.45,-40.71 -3.69,-168.58 -3.69,-383.5 0,-237.07 -29.87,-407.85 -89.04,-511.97 -59.78,-104.06 -155.54,-181.56 -287.88,-232.52 112.2,-49.18 193.97,-106.33 246.43,-170.23 51.82,-63.93 89.04,-155.01 110.39,-273.23 13.39,-76.35 20.1,-259.06 20.1,-548.14 0,-143.68 20.14,-235.87 59.78,-277.14 40.27,-41.31 121.36,-62.23 244.01,-62.23l54.91 0 0 -4.21z"/>
    <path class="fil1" d="M-23908.77 4535.88l0 -2430.11 1892.13 0 0 285.05 -1544.44 0 0 746.73 1445.62 0 0 285.05 -1445.62 0 0 828.19 1606.63 0 0 285.09 -1954.32 0zm2393.47 0l0 -1761.48 289.15 0 0 250c139.05,-191.73 340.37,-287.36 603.28,-287.36 114.65,0 219.57,19.24 315.33,57.15 95.75,37.88 167.75,88.21 215.31,149.91 47.56,61.66 81.12,135.18 100.02,220 11.61,55.44 17.72,152.18 17.72,290.22l0 1081.56 -322.08 0 0 -1070.22c0,-121.65 -12.22,-212.72 -37.22,-272.67 -25.01,-59.99 -69.51,-108.04 -132.95,-144.24 -63.43,-35.64 -138.48,-53.76 -223.87,-53.76 -136.64,0 -254.34,40.19 -353.76,121.05 -99.41,80.34 -148.85,233.64 -148.85,458.77l0 961.07 -322.08 0zm2734.44 -266.42l43.97 263.58c-90.29,17.56 -171.41,26.62 -242.17,26.62 -116.49,0 -206.75,-17 -271.43,-51.45 -64.03,-34.56 -109.18,-79.25 -135.43,-135.25 -26.21,-55.96 -39.03,-173.66 -39.03,-352.97l0 -1014.82 -237.87 0 0 -230.77 237.87 0 0 -435.59 322.08 -179.32 0 614.91 322.01 0 0 230.77 -322.01 0 0 1031.81c0,85.41 5.5,140.29 17.08,164.6 10.98,24.31 29.27,43.54 54.91,58.27 25.61,14.13 62.16,21.47 109.76,21.47 35.37,0 82.36,-3.95 140.26,-11.86zm314.16 266.42l0 -1761.48 289.11 0 0 269.83c73.81,-125.03 142.15,-207.61 204.94,-247.24 62.87,-40.15 131.78,-59.95 206.79,-59.95 108.62,0 218.97,31.69 331.21,94.47l-114.66 275.51c-78.1,-40.75 -156.17,-61.14 -234.24,-61.14 -70.15,0 -132.94,19.83 -188.46,58.86 -55.55,39 -95.15,93.32 -118.95,162.92 -35.98,105.8 -53.67,221.71 -53.67,347.87l0 920.35 -322.07 0zm2517.92 -570.18l333.05 40.71c-51.89,179.32 -148.82,319.08 -290.33,418.03 -141.54,99.02 -322.07,148.76 -542.29,148.76 -276.86,0 -496.47,-79.16 -658.75,-237.53 -162.25,-157.84 -243.34,-380.15 -243.34,-665.83 0,-295.29 81.73,-524.91 245.75,-687.83 164.1,-163.51 376.99,-244.97 638.69,-244.97 253.1,0 459.89,79.78 620.29,239.87 160.44,160.08 240.96,385.22 240.96,675.38 0,17.55 -0.61,44.14 -1.82,79.22l-1414.51 0c12.18,192.89 70.75,341.08 176.88,443.49 105.53,102.37 237.87,153.82 395.85,153.82 117.78,0 218.37,-28.82 301.34,-86.53 83.54,-57.68 149.46,-149.87 198.23,-276.59zm-1054.01 -478.54l1057.7 0c-14.06,-148.22 -54.91,-259.09 -121.4,-333.24 -101.87,-114.79 -234.85,-172.47 -397.7,-172.47 -147.61,0 -271.43,45.82 -372.12,137.46 -100.02,91.63 -155.5,214.4 -166.48,368.25zm1734.71 1194.7l311.11 40.68c12.78,89.4 49.4,154.45 109.18,195.72 79.88,54.88 189.06,82.58 327.55,82.58 148.86,0 264.11,-27.7 345.2,-82.58 81.16,-54.87 136.07,-132.38 164.7,-231.33 16.48,-60.54 24.43,-187.81 23.23,-381.83 -140.94,153.86 -315.97,230.78 -525.78,230.78 -261.13,0 -463.62,-87.13 -606.37,-261.9 -143.31,-174.25 -214.7,-383.54 -214.7,-627.33 0,-167.98 32.99,-322.96 98.24,-464.99 65.28,-141.94 160.4,-251.13 284.86,-328.67 124.42,-77.47 270.79,-115.95 439.18,-115.95 223.87,0 408.67,84.86 553.83,254.59l0 -217.23 296.44 0 0 1521.09c0,274.35 -29.84,468.36 -90.25,582.59 -59.78,114.3 -155.57,204.78 -285.46,271.02 -130.57,66.17 -290.97,99.51 -481.27,99.51 -226.29,0 -408.68,-46.94 -547.77,-141.41 -139.65,-93.87 -206.78,-235.87 -201.92,-425.34zm263.55 -1056.71c0,230.21 49.37,398.23 148.18,504.03 99.42,105.76 223.27,158.96 372.09,158.96 148.22,0 272.07,-52.64 372.73,-157.88 100.02,-105.17 150.03,-270.36 150.03,-495.5 0,-214.92 -51.83,-377.28 -154.93,-486.47 -103.08,-109.16 -227.53,-163.48 -372.7,-163.48 -143.35,0 -264.75,53.76 -365.34,161.24 -100.09,107.45 -150.06,266.97 -150.06,479.1zm3071.75 690.13c-119.55,94.44 -234.81,160.65 -345.23,199.68 -110.39,39.03 -228.7,58.24 -355.65,58.24 -208.56,0 -368.99,-46.94 -481.2,-141.38 -112.23,-93.94 -168.35,-214.43 -168.35,-360.91 0,-85.97 21.34,-164.63 63.43,-235.91 42.66,-71.28 98.17,-127.84 166.51,-170.79 68.91,-43.02 145.77,-75.79 231.79,-97.89 63.44,-15.29 159.2,-29.98 286.64,-44.67 259.88,-28.29 452,-62.81 574.61,-102.37 1.24,-40.75 1.81,-66.77 1.81,-77.54 0,-121.02 -30.47,-206.43 -91.46,-256.23 -82.33,-67.3 -204.97,-100.7 -367.19,-100.7 -151.91,0 -264.14,24.9 -336.1,74.11 -72.6,49.22 -125.67,136.34 -160.44,261.9l-314.73 -40.74c28.67,-124.97 75.66,-226.23 141.51,-303.17 65.88,-76.92 161.04,-135.78 285.49,-177.64 123.78,-41.28 268.38,-62.23 431.87,-62.23 162.21,0 294.59,17.56 396.45,53.17 101.23,35.64 176.28,79.81 223.87,133.53 47.56,53.73 81.09,121.61 100.63,203.63 10.37,50.89 15.87,142.53 15.87,274.35l0 395.96c0,276.59 6.68,451.43 20.07,525.48 12.82,74.14 39.71,144.86 78.75,212.72l-336.72 0c-32.32,-62.79 -53.06,-136.34 -62.23,-220.6zm-25.64 -661.84c-117.07,44.11 -292.74,81.46 -526.98,112.03 -132.98,17.49 -226.89,37.32 -281.8,59.35 -54.88,22.1 -97,54.32 -126.88,96.18 -29.94,42.4 -45.14,89.4 -45.14,141.41 0,78.63 32.36,144.8 97.57,197.44 65.28,52.6 160.44,79.18 285.53,79.18 123.78,0 234.17,-24.9 331.21,-75.23 96.32,-49.77 167.68,-118.25 212.86,-204.78 34.77,-67.33 51.82,-166.28 51.82,-296.95l1.81 -108.63zm692.36 356.37l318.42 -47.53c17.65,118.25 67.7,208.73 149.42,272.1 81.73,62.79 196.38,94.44 342.75,94.44 148.26,0 258.04,-27.67 330.04,-83.7 71.39,-55.43 107.34,-121.01 107.34,-196.28 0,-67.33 -32.36,-120.46 -96.37,-158.96 -45.18,-26.55 -154.96,-59.95 -329.36,-101.26 -235.48,-54.87 -398.33,-102.37 -489.86,-142.53 -90.82,-40.74 -159.8,-96.18 -206.72,-167.42 -46.99,-70.76 -70.79,-149.35 -70.79,-235.35 0,-78.6 19.5,-151.03 57.93,-217.76 39.04,-66.77 91.53,-122.21 158.02,-166.31 49.98,-33.96 118.31,-62.82 204.3,-86.6 86.63,-23.71 178.73,-35.61 277.54,-35.61 148.86,0 279.39,19.8 391.59,59.95 112.88,39.63 195.81,93.91 249.52,161.8 53.03,68.48 90.25,159.49 110.39,273.79l-314.76 40.71c-14,-91.63 -55.52,-163.47 -123.82,-214.89 -68.34,-51.52 -164.66,-76.95 -289.72,-76.95 -147.01,0 -252.54,22.6 -315.37,67.86 -62.8,45.25 -94.55,98.42 -94.55,158.96 0,38.47 12.82,73.52 39,104.65 26.28,31.65 67.17,58.23 123.25,79.18 32.36,11.27 126.27,36.73 283.68,76.35 226.89,56 385.48,102.38 475.73,138.02 90.29,35.64 161.04,88.28 212.3,156.16 51.82,68.42 77.46,153.3 77.46,255.08 0,99.02 -31.15,192.37 -93.94,280.02 -62.8,87.68 -153.12,155.57 -270.8,203.63 -118.34,48.12 -251.96,71.84 -400.75,71.84 -246.46,0 -434.95,-47.5 -564.24,-141.97 -129.32,-95.03 -211.69,-235.32 -247.63,-421.42z"/>
   </g>
   <path class="fil0" d="M-22844.07 7199.84l0 -1272.02 416.03 0 245.87 867.57 242.96 -867.57 416.98 0 0 1272.02 -256.69 0 -0.96 -1001.42 -270.42 1001.42 -266.92 0 -269.15 -1001.42 -1.01 1001.42 -256.69 0zm2172.4 -291.35l262.47 40.86c-33.57,89.1 -86.86,156.91 -159.34,203.73 -72.8,46.47 -163.79,69.87 -272.65,69.87 -172.75,0 -300.81,-52.42 -383.47,-157.25 -65.49,-84.09 -98.36,-190.11 -98.36,-318.31 0,-152.78 43.11,-272.71 129.01,-359.16 85.9,-86.74 194.76,-129.97 326.31,-129.97 147.51,0 264.06,45.29 349.59,135.87 85.26,90.63 126.14,229.49 122.32,416.65l-657.13 0c1.91,72.24 23.02,128.49 63.58,168.76 40.19,40.28 90.67,60.39 150.7,60.39 41.2,0 75.66,-10.33 103.45,-31.08 28.1,-20.7 49.15,-54.19 63.52,-100.36zm15.32 -246.95c-1.91,-70.76 -21.37,-124.66 -58.75,-161.39 -37.33,-36.98 -82.72,-55.37 -136.32,-55.37 -57.16,0 -104.41,19.57 -141.79,58.32 -37.33,38.8 -55.52,91.81 -54.88,158.44l391.74 0zm1379.64 538.3l-262.42 0 0 -469.9c0,-99.48 -5.78,-163.75 -16.97,-192.76 -11.45,-29.31 -29.69,-51.83 -55.19,-68.11 -25.56,-16.27 -56.21,-24.29 -92,-24.29 -45.97,0 -87.12,11.56 -123.55,34.67 -36.69,23.06 -61.61,53.89 -75.03,91.76 -13.73,38.2 -20.41,108.67 -20.41,211.74l0 416.89 -262.47 0 0 -922.05 243.27 0 0 135.32c87.18,-103.36 196.72,-154.85 329.23,-154.85 58.06,0 111.4,9.74 159.6,29.02 48.57,19.52 84.95,44.11 109.55,74 24.87,30.2 42.16,64.27 51.7,102.48 9.92,38.16 14.69,92.64 14.69,163.7l0 572.38zm172.11 -259.39l264.38 -37.32c11.19,47.11 33.83,82.9 68.3,107.2 34.2,24.58 82.4,36.73 144.01,36.73 68.03,0 119.09,-11.56 153.56,-34.67 23.01,-16.27 34.52,-38.16 34.52,-65.4 0,-18.39 -6.42,-33.78 -18.88,-45.93 -13.04,-11.55 -42.42,-22.47 -87.75,-32.26 -212.37,-43.51 -346.78,-83.2 -403.62,-119.04 -78.85,-50.01 -118.14,-119.3 -118.14,-207.86 0,-80.25 34.2,-147.42 102.18,-201.91 68.03,-54.48 173.39,-81.73 316.13,-81.73 136,0 237.23,20.71 303.29,61.86 66.07,41.46 111.78,102.48 136.65,183.28l-247.09 42.68c-10.56,-36.14 -31.02,-63.98 -60.72,-83.25 -29.69,-19.23 -72.11,-28.72 -127.36,-28.72 -69.62,0 -119.41,8.9 -149.74,26.95 -20.15,12.73 -30.01,29.3 -30.01,49.47 0,17.45 8.59,32.25 26.19,44.4 23.91,16.28 106,39.09 246.46,68.69 140.51,29.61 238.5,65.75 294.07,108.68 55.25,43.22 82.72,103.95 82.72,181.5 0,84.38 -38.02,157.26 -114.32,217.94 -75.99,60.68 -188.72,91.21 -338.14,91.21 -135.37,0 -242.64,-25.47 -321.86,-76.12 -78.84,-50.65 -130.54,-119.34 -154.83,-206.38zm1354.72 -378.39l-237.55 -39.09c26.83,-90.04 73.12,-156.67 138.61,-199.89 65.43,-43.23 162.83,-64.82 291.79,-64.82 117.18,0 204.67,12.74 262.15,38.46 57.16,25.77 97.72,58.37 121,98.05 23.33,39.63 35.15,112.21 35.15,218.18l-3.87 284.28c0,80.84 4.19,140.63 12.46,179.14 8.33,38.5 23.97,79.66 46.93,123.47l-260.51 0c-6.73,-15.98 -15.32,-39.68 -25.24,-71.05 -4.13,-14.51 -7.31,-24 -9.28,-28.43 -44.69,40.87 -92.58,71.35 -143.64,91.76 -51.11,20.46 -105.36,30.83 -163.15,30.83 -101.86,0 -182.3,-25.76 -241.05,-77.3 -58.75,-51.24 -88.13,-116.34 -88.13,-195.12 0,-51.83 13.42,-98.3 40.2,-139.16 26.83,-40.57 64.21,-71.94 112.72,-93.58 48.2,-21.63 117.82,-40.57 208.81,-56.84 122.6,-21.34 207.86,-41.46 255.1,-59.8l0 -24.58c0,-47.41 -12.46,-81.14 -37.33,-101.6 -25.24,-20.11 -72.48,-30.19 -141.78,-30.19 -46.93,0 -83.3,8.61 -109.5,26.06 -26.51,17.16 -47.56,47.7 -63.89,91.22zm352.5 197.19c-33.51,10.37 -86.85,22.81 -159.97,37.32 -72.75,14.5 -120.68,28.72 -143.01,42.34 -34.2,22.76 -51.43,51.24 -51.43,85.85 0,34.38 13.73,63.68 41.2,88.52 27.47,24.88 62.25,37.32 104.72,37.32 47.25,0 92.58,-14.51 135.69,-43.22 31.6,-22.23 52.71,-48.88 62.57,-80.85 6.73,-20.7 10.23,-60.38 10.23,-118.7l0 -48.58zm511.85 -605.82l0 -225.61 262.46 0 0 225.61 -262.46 0zm262.46 124.36l0 892.74c0,117.23 -8.32,200.14 -24.92,248.43 -16.28,48.24 -48.2,86.15 -95.49,113.1 -46.93,27.24 -106.95,40.86 -180.07,40.86 -26.14,0 -54.25,-2.06 -84.58,-6.49 -30.33,-4.18 -62.94,-10.67 -97.72,-19.57l45.02 -207.27c12.46,2.07 24.28,4.13 35.42,5.66 10.87,1.47 21.1,2.06 30.7,2.06 26.78,0 49.15,-5.36 66.38,-15.98 17.24,-10.67 28.74,-23.7 34.15,-38.8 5.78,-15.09 8.65,-60.14 8.65,-135.32l0 -879.42 262.46 0zm850.25 630.7l262.47 40.86c-33.57,89.1 -86.86,156.91 -159.34,203.73 -72.8,46.47 -163.79,69.87 -272.65,69.87 -172.75,0 -300.81,-52.42 -383.47,-157.25 -65.49,-84.09 -98.36,-190.11 -98.36,-318.31 0,-152.78 43.11,-272.71 129.01,-359.16 85.9,-86.74 194.75,-129.97 326.31,-129.97 147.51,0 264.06,45.29 349.59,135.87 85.26,90.63 126.14,229.49 122.32,416.65l-657.13 0c1.91,72.24 23.02,128.49 63.58,168.76 40.19,40.28 90.67,60.39 150.69,60.39 41.2,0 75.67,-10.33 103.45,-31.08 28.11,-20.7 49.16,-54.19 63.53,-100.36zm15.32 -246.95c-1.91,-70.76 -21.37,-124.66 -58.75,-161.39 -37.33,-36.98 -82.72,-55.37 -136.32,-55.37 -57.16,0 -104.41,19.57 -141.79,58.32 -37.33,38.8 -55.52,91.81 -54.88,158.44l391.74 0zm726.38 538.3l-262.42 0 0 -922.05 243.28 0 0 130.9c41.83,-61.91 79.48,-102.48 113.04,-121.71 33.52,-19.27 71.48,-28.72 113.95,-28.72 60.03,0 117.82,15.4 173.39,45.88l-81.44 212.58c-44.38,-26.65 -85.53,-39.98 -123.55,-39.98 -37.01,0 -68.35,9.49 -93.85,28.18 -25.56,18.93 -45.66,52.66 -60.34,101.84 -14.69,49.17 -22.06,152.19 -22.06,308.81l0 284.27zm494.56 -1046.41l0 -225.61 262.46 0 0 225.61 -262.46 0zm0 1046.41l0 -922.05 262.46 0 0 922.05 -262.46 0zm727.65 -637.78l-237.55 -39.09c26.83,-90.04 73.12,-156.67 138.6,-199.89 65.43,-43.23 162.84,-64.82 291.79,-64.82 117.19,0 204.68,12.74 262.16,38.46 57.16,25.77 97.72,58.37 121,98.05 23.33,39.63 35.15,112.21 35.15,218.18l-3.87 284.28c0,80.84 4.19,140.63 12.46,179.14 8.33,38.5 23.97,79.66 46.93,123.47l-260.51 0c-6.73,-15.98 -15.32,-39.68 -25.24,-71.05 -4.13,-14.51 -7.32,-24 -9.28,-28.43 -44.7,40.87 -92.58,71.35 -143.64,91.76 -51.12,20.46 -105.36,30.83 -163.16,30.83 -101.86,0 -182.29,-25.76 -241.04,-77.3 -58.75,-51.24 -88.13,-116.34 -88.13,-195.12 0,-51.83 13.42,-98.3 40.19,-139.16 26.83,-40.57 64.21,-71.94 112.73,-93.58 48.2,-21.63 117.82,-40.57 208.81,-56.84 122.59,-21.34 207.86,-41.46 255.1,-59.8l0 -24.58c0,-47.41 -12.46,-81.14 -37.33,-101.6 -25.24,-20.11 -72.48,-30.19 -141.79,-30.19 -46.92,0 -83.3,8.61 -109.49,26.06 -26.51,17.16 -47.56,47.7 -63.89,91.22zm352.5 197.19c-33.51,10.37 -86.85,22.81 -159.97,37.32 -72.75,14.5 -120.69,28.72 -143.01,42.34 -34.2,22.76 -51.43,51.24 -51.43,85.85 0,34.38 13.73,63.68 41.2,88.52 27.46,24.88 62.25,37.32 104.72,37.32 47.24,0 92.58,-14.51 135.69,-43.22 31.6,-22.23 52.7,-48.88 62.57,-80.85 6.73,-20.7 10.23,-60.38 10.23,-118.7l0 -48.58zm923.42 -481.46l279.7 0 238.5 654.1 232.72 -654.1 272.07 0 -350.59 887.38 -63.21 160.21c-23.33,53.6 -45.34,94.47 -66.44,122.89 -20.73,28.12 -45.02,51.24 -72.16,68.69 -27.1,17.75 -60.66,31.38 -100.54,41.16 -39.61,9.79 -84.63,14.8 -134.73,14.8 -50.48,0 -100.27,-5.01 -149.11,-14.8l-23.01 -190.1c41.2,7.42 78.53,11.26 111.78,11.26 61.29,0 106.63,-16.57 136,-50.06 29.38,-33.44 52.02,-76.07 67.66,-127.61l-378.64 -923.82zm2636.04 922.05l-243.33 0 0 -135.32c-40.51,52.71 -88.76,92.1 -143.96,118.75 -55.25,26.36 -111.14,39.68 -167.34,39.68 -114.59,0 -212.63,-42.63 -294.34,-128.24 -81.45,-85.56 -122.33,-204.56 -122.33,-357.69 0,-156.32 39.61,-275.37 119.09,-356.81 79.54,-81.38 179.76,-121.95 301.13,-121.95 111.08,0 207.54,42.93 288.61,128.5l0 -458.94 262.47 0 0 1272.02zm-701.19 -478.8c0,98.59 14.68,169.99 43.74,214.1 42.47,63.93 101.54,95.94 177.53,95.94 60.34,0 111.77,-24 153.93,-71.94 42.47,-48 63.52,-119.35 63.52,-214.7 0,-106.31 -20.42,-182.68 -61.61,-229.49 -41.2,-46.76 -93.54,-70.17 -157.75,-70.17 -62.25,0 -114.27,23.11 -156.42,69.29 -41.84,46.22 -62.94,115.21 -62.94,206.97zm1534.2 187.45l262.47 40.86c-33.57,89.1 -86.86,156.91 -159.34,203.73 -72.8,46.47 -163.79,69.87 -272.65,69.87 -172.75,0 -300.81,-52.42 -383.47,-157.25 -65.49,-84.09 -98.36,-190.11 -98.36,-318.31 0,-152.78 43.11,-272.71 129.01,-359.16 85.9,-86.74 194.75,-129.97 326.31,-129.97 147.51,0 264.06,45.29 349.59,135.87 85.26,90.63 126.14,229.49 122.32,416.65l-657.13 0c1.91,72.24 23.02,128.49 63.58,168.76 40.19,40.28 90.67,60.39 150.7,60.39 41.19,0 75.66,-10.33 103.45,-31.08 28.1,-20.7 49.15,-54.19 63.52,-100.36zm15.32 -246.95c-1.91,-70.76 -21.37,-124.66 -58.75,-161.39 -37.33,-36.98 -82.72,-55.37 -136.32,-55.37 -57.16,0 -104.41,19.57 -141.79,58.32 -37.33,38.8 -55.52,91.81 -54.88,158.44l391.74 0zm475.42 538.3l0 -1272.02 262.47 0 0 1272.02 -262.47 0zm532.25 -1046.41l0 -225.61 262.47 0 0 225.61 -262.47 0zm0 1046.41l0 -922.05 262.47 0 0 922.05 -262.47 0zm805.6 0l-400.7 -922.05 275.83 0 187.12 470.49 54.3 157.26c14.37,-39.98 23.59,-66.34 27.09,-79.07 8.96,-26.07 18.24,-52.13 28.42,-78.19l189.67 -470.49 270.1 0 -394.92 922.05 -236.91 0zm1366.86 -291.35l262.47 40.86c-33.57,89.1 -86.86,156.91 -159.34,203.73 -72.8,46.47 -163.79,69.87 -272.65,69.87 -172.76,0 -300.81,-52.42 -383.47,-157.25 -65.49,-84.09 -98.36,-190.11 -98.36,-318.31 0,-152.78 43.11,-272.71 129,-359.16 85.9,-86.74 194.76,-129.97 326.32,-129.97 147.51,0 264.06,45.29 349.58,135.87 85.27,90.63 126.15,229.49 122.33,416.65l-657.13 0c1.91,72.24 23.01,128.49 63.58,168.76 40.19,40.28 90.67,60.39 150.69,60.39 41.2,0 75.67,-10.33 103.45,-31.08 28.11,-20.7 49.16,-54.19 63.53,-100.36zm15.32 -246.95c-1.91,-70.76 -21.37,-124.66 -58.75,-161.39 -37.33,-36.98 -82.72,-55.37 -136.33,-55.37 -57.16,0 -104.4,19.57 -141.78,58.32 -37.33,38.8 -55.52,91.81 -54.88,158.44l391.74 0zm726.38 538.3l-262.42 0 0 -922.05 243.28 0 0 130.9c41.83,-61.91 79.48,-102.48 113.04,-121.71 33.51,-19.27 71.48,-28.72 113.95,-28.72 60.03,0 117.82,15.4 173.39,45.88l-81.44 212.58c-44.38,-26.65 -85.53,-39.98 -123.55,-39.98 -37.01,0 -68.35,9.49 -93.85,28.18 -25.56,18.93 -45.66,52.66 -60.34,101.84 -14.69,49.17 -22.06,152.19 -22.06,308.81l0 284.27zm368.14 -922.05l279.71 0 238.5 654.1 232.72 -654.1 272.07 0 -350.6 887.38 -63.2 160.21c-23.33,53.6 -45.34,94.47 -66.44,122.89 -20.73,28.12 -45.02,51.24 -72.17,68.69 -27.09,17.75 -60.66,31.38 -100.53,41.16 -39.61,9.79 -84.63,14.8 -134.73,14.8 -50.48,0 -100.27,-5.01 -149.11,-14.8l-23.01 -190.1c41.2,7.42 78.53,11.26 111.77,11.26 61.3,0 106.64,-16.57 136.01,-50.06 29.38,-33.44 52.02,-76.07 67.66,-127.61l-378.65 -923.82z"/>
  </g>
  <rect class="fil2" x="-25437.55" y="1168.86" width="24341.68" height="7182.67"/>
 </g>
</svg>
